# xmcd
#
# Track frame offsets: 
#        150
#        26447
#        61866
#        85531
#        116462
#        142069
#        181919
#        210785
#
# Disc length: 3308 seconds
#
# Revision: 0
# Processed by: cddbd v1.5.2PL0 Copyright (c) Steve Scherf et al.
# Submitted via: ExactAudioCopy v1.0b1
#
DISCID=5b0cea08
DTITLE=Rush  - Allentown Fair Allentown Pa - August 31 2010 - Disc 3
DYEAR=1900
DGENRE=
TTITLE0=Caravan
TTITLE1=Neil Peart Solo (Love 4 Sale)
TTITLE2=Closer To The Heart
TTITLE3=2112 (I,Ii)
TTITLE4=Far Cry - Encore
TTITLE5=La Villa Strangiato
TTITLE6=Working Man
TTITLE7=Outro Film "I Still Love You, Man"\\Closer to the Heart (Polka
TTITLE7=Version)
EXTD=
EXTT0=
EXTT1=
EXTT2=
EXTT3=
EXTT4=
EXTT5=
EXTT6=
EXTT7=
PLAYORDER=
